<svg width="232" height="51" viewBox="0 0 232 51" fill="none" xmlns="http://www.w3.org/2000/svg">
<path d="M7.91974 41H0.99929L11.544 10.4545H19.8665L30.3963 41H23.4759L15.8246 17.4347H15.5859L7.91974 41ZM7.48722 28.9936H23.8338V34.0348H7.48722V28.9936ZM50.7915 20.3281C50.5827 19.6023 50.2894 18.9609 49.9115 18.4041C49.5337 17.8374 49.0713 17.3601 48.5245 16.9723C47.9875 16.5746 47.3711 16.2713 46.675 16.0625C45.989 15.8537 45.2283 15.7493 44.3931 15.7493C42.832 15.7493 41.4598 16.1371 40.2766 16.9126C39.1033 17.6882 38.1885 18.8168 37.5323 20.2983C36.876 21.7699 36.5479 23.5696 36.5479 25.6974C36.5479 27.8253 36.8711 29.6349 37.5174 31.1264C38.1637 32.6179 39.0784 33.7564 40.2617 34.5419C41.4449 35.3175 42.8419 35.7053 44.4527 35.7053C45.9144 35.7053 47.1623 35.4467 48.1963 34.9297C49.2404 34.4027 50.0358 33.6619 50.5827 32.7074C51.1395 31.7528 51.4179 30.6243 51.4179 29.3217L52.7304 29.5156H44.8554V24.6534H57.6374V28.5014C57.6374 31.1861 57.0706 33.4929 55.9371 35.4219C54.8036 37.3409 53.2425 38.8224 51.2539 39.8665C49.2652 40.9006 46.9882 41.4176 44.4229 41.4176C41.5593 41.4176 39.0436 40.7862 36.876 39.5234C34.7084 38.2507 33.0181 36.446 31.805 34.1094C30.6019 31.7628 30.0003 28.9787 30.0003 25.7571C30.0003 23.2812 30.3583 21.0739 31.0742 19.1349C31.8 17.1861 32.8142 15.5355 34.1168 14.1832C35.4194 12.831 36.9357 11.8018 38.6658 11.0959C40.3959 10.3899 42.2702 10.0369 44.2887 10.0369C46.0188 10.0369 47.6296 10.2905 49.1211 10.7976C50.6125 11.2947 51.935 12.0007 53.0884 12.9155C54.2517 13.8303 55.2013 14.919 55.9371 16.1818C56.6729 17.4347 57.1452 18.8168 57.354 20.3281H50.7915ZM85.9374 10.4545V41H80.3593L67.0702 21.7749H66.8465V41H60.3884V10.4545H66.056L79.2407 29.6648H79.5092V10.4545H85.9374Z" fill="#121212"/>
<path d="M141.225 19.2393C141.106 18.0362 140.594 17.1016 139.689 16.4354C138.784 15.7692 137.556 15.4361 136.005 15.4361C134.951 15.4361 134.061 15.5852 133.335 15.8835C132.609 16.1719 132.053 16.5746 131.665 17.0916C131.287 17.6087 131.098 18.1953 131.098 18.8516C131.078 19.3984 131.192 19.8757 131.441 20.2834C131.7 20.6911 132.053 21.044 132.5 21.3423C132.947 21.6307 133.464 21.8842 134.051 22.103C134.638 22.3118 135.264 22.4908 135.93 22.6399L138.675 23.2962C140.007 23.5945 141.23 23.9922 142.344 24.4893C143.457 24.9865 144.422 25.598 145.237 26.3239C146.053 27.0497 146.684 27.9048 147.131 28.8892C147.589 29.8736 147.822 31.0021 147.832 32.2749C147.822 34.1442 147.345 35.7649 146.401 37.1371C145.466 38.4993 144.114 39.5582 142.344 40.3139C140.584 41.0597 138.461 41.4325 135.975 41.4325C133.509 41.4325 131.362 41.0547 129.532 40.299C127.712 39.5433 126.29 38.4247 125.266 36.9432C124.252 35.4517 123.72 33.6072 123.67 31.4098H129.92C129.989 32.4339 130.283 33.2891 130.8 33.9751C131.327 34.6513 132.028 35.1634 132.903 35.5114C133.788 35.8494 134.787 36.0185 135.901 36.0185C136.994 36.0185 137.944 35.8594 138.749 35.5412C139.565 35.223 140.196 34.7805 140.643 34.2138C141.091 33.647 141.315 32.9957 141.315 32.2599C141.315 31.5739 141.111 30.9972 140.703 30.5298C140.305 30.0625 139.719 29.6648 138.943 29.3366C138.178 29.0085 137.238 28.7102 136.124 28.4418L132.798 27.6065C130.223 26.9801 128.19 26.0007 126.698 24.6683C125.207 23.3359 124.466 21.5412 124.476 19.2841C124.466 17.4347 124.958 15.8189 125.952 14.4368C126.957 13.0547 128.334 11.9759 130.084 11.2003C131.834 10.4247 133.822 10.0369 136.05 10.0369C138.317 10.0369 140.295 10.4247 141.986 11.2003C143.686 11.9759 145.009 13.0547 145.953 14.4368C146.898 15.8189 147.385 17.4197 147.415 19.2393H141.225ZM148.913 15.7791V10.4545H174V15.7791H164.648V41H158.265V15.7791H148.913ZM182.489 10.4545V41H176.031V10.4545H182.489ZM212.653 21.1484H206.121C206.001 20.3033 205.758 19.5526 205.39 18.8963C205.022 18.2301 204.55 17.6634 203.973 17.196C203.396 16.7287 202.73 16.3707 201.975 16.1222C201.229 15.8736 200.418 15.7493 199.543 15.7493C197.962 15.7493 196.585 16.142 195.412 16.9276C194.239 17.7031 193.329 18.8366 192.683 20.3281C192.036 21.8097 191.713 23.6094 191.713 25.7273C191.713 27.9048 192.036 29.7344 192.683 31.2159C193.339 32.6974 194.254 33.8161 195.427 34.5717C196.6 35.3274 197.957 35.7053 199.499 35.7053C200.364 35.7053 201.164 35.5909 201.9 35.3622C202.646 35.1335 203.307 34.8004 203.884 34.3629C204.46 33.9155 204.938 33.3736 205.315 32.7372C205.703 32.1009 205.972 31.375 206.121 30.5597L212.653 30.5895C212.484 31.9915 212.062 33.3438 211.386 34.6463C210.72 35.9389 209.82 37.0973 208.686 38.1214C207.563 39.1357 206.22 39.9411 204.659 40.5376C203.108 41.1243 201.353 41.4176 199.394 41.4176C196.67 41.4176 194.234 40.8011 192.086 39.5682C189.948 38.3352 188.258 36.5504 187.015 34.2138C185.782 31.8771 185.166 29.0483 185.166 25.7273C185.166 22.3963 185.792 19.5625 187.045 17.2259C188.298 14.8892 189.998 13.1094 192.146 11.8864C194.293 10.6534 196.71 10.0369 199.394 10.0369C201.164 10.0369 202.805 10.2855 204.316 10.7827C205.837 11.2798 207.185 12.0057 208.358 12.9602C209.531 13.9048 210.486 15.0632 211.222 16.4354C211.967 17.8075 212.445 19.3786 212.653 21.1484Z" fill="#121212"/>
<path d="M222.94 18.4943V13.2528H225.504C225.836 13.2528 226.139 13.3215 226.413 13.4588C226.693 13.5961 226.913 13.795 227.074 14.0554C227.24 14.3111 227.322 14.6236 227.322 14.9929C227.322 15.3622 227.237 15.6771 227.067 15.9375C226.896 16.1979 226.669 16.3968 226.385 16.5341C226.101 16.6667 225.786 16.733 225.44 16.733H223.686V15.7457H225.156C225.355 15.7457 225.526 15.6818 225.668 15.554C225.814 15.4261 225.888 15.2367 225.888 14.9858C225.888 14.7254 225.814 14.5407 225.668 14.4318C225.526 14.3182 225.357 14.2614 225.163 14.2614H224.304V18.4943H222.94ZM226.286 16.0724L227.479 18.4943H225.987L224.872 16.0724H226.286ZM224.993 21.6193C224.207 21.6193 223.471 21.4725 222.784 21.179C222.098 20.8854 221.494 20.4782 220.973 19.9574C220.452 19.4366 220.045 18.8329 219.751 18.1463C219.458 17.4598 219.311 16.7235 219.311 15.9375C219.311 15.1515 219.458 14.4152 219.751 13.7287C220.045 13.0421 220.452 12.4384 220.973 11.9176C221.494 11.3968 222.098 10.9896 222.784 10.696C223.471 10.4025 224.207 10.2557 224.993 10.2557C225.779 10.2557 226.515 10.4025 227.202 10.696C227.888 10.9896 228.492 11.3968 229.013 11.9176C229.534 12.4384 229.941 13.0421 230.234 13.7287C230.528 14.4152 230.675 15.1515 230.675 15.9375C230.675 16.7235 230.528 17.4598 230.234 18.1463C229.941 18.8329 229.534 19.4366 229.013 19.9574C228.492 20.4782 227.888 20.8854 227.202 21.179C226.515 21.4725 225.779 21.6193 224.993 21.6193ZM224.993 20.1207C225.769 20.1207 226.473 19.9337 227.102 19.5597C227.737 19.1809 228.241 18.6766 228.615 18.0469C228.989 17.4124 229.176 16.7093 229.176 15.9375C229.176 15.1657 228.987 14.465 228.608 13.8352C228.234 13.2008 227.73 12.6965 227.095 12.3224C226.465 11.9437 225.765 11.7543 224.993 11.7543C224.226 11.7543 223.525 11.9437 222.891 12.3224C222.256 12.6965 221.752 13.2008 221.378 13.8352C221.004 14.465 220.817 15.1657 220.817 15.9375C220.817 16.7093 221.004 17.4124 221.378 18.0469C221.752 18.6766 222.256 19.1809 222.891 19.5597C223.525 19.9337 224.226 20.1207 224.993 20.1207Z" fill="#121212"/>
<path fill-rule="evenodd" clip-rule="evenodd" d="M116.46 36.4602C122.513 30.407 122.513 20.593 116.46 14.5398C110.407 8.48672 100.593 8.48672 94.5398 14.5398C88.4867 20.593 88.4867 30.407 94.5398 36.4602C100.593 42.5133 110.407 42.5133 116.46 36.4602ZM93.938 25.0088C93.5474 25.3994 93.5474 26.0325 93.938 26.4231L104.824 37.309C105.214 37.6996 105.848 37.6996 106.238 37.309L117.095 26.4524C117.485 26.0619 117.485 25.4287 117.095 25.0382L106.209 14.1522C105.818 13.7617 105.185 13.7617 104.795 14.1522L93.938 25.0088Z" fill="#121212"/>
</svg>
